<svg width="271" height="55" viewBox="0 0 271 55" fill="none" xmlns="http://www.w3.org/2000/svg">
<path d="M18.53 54.91C15.31 54.91 12.3233 54.6067 9.57 54C6.86333 53.3467 4.69333 52.3433 3.06 50.99C1.42667 49.59 0.61 47.7467 0.61 45.46C0.61 43.4533 1.21667 41.7967 2.43 40.49C3.64333 39.1833 5.25333 38.53 7.26 38.53C8.52 38.53 9.78 38.74 11.04 39.16C12.3467 39.5333 13.7233 39.9067 15.17 40.28C16.6167 40.6533 18.18 40.84 19.86 40.84C21.3533 40.84 22.3567 40.77 22.87 40.63C23.3833 40.4433 23.64 40.1167 23.64 39.65C23.64 39.09 23.3133 38.7167 22.66 38.53C22.0533 38.3433 21.0033 38.11 19.51 37.83L14.47 36.85C12.37 36.43 10.3167 35.8933 8.31 35.24C6.35 34.54 4.71667 33.5133 3.41 32.16C2.15 30.8067 1.52 28.9633 1.52 26.63C1.52 23.4567 2.92 20.9833 5.72 19.21C8.56667 17.4367 12.6733 16.55 18.04 16.55C21.12 16.55 23.8733 16.8533 26.3 17.46C28.7733 18.0667 30.7333 18.9767 32.18 20.19C33.6267 21.3567 34.35 22.8267 34.35 24.6C34.3967 26.5133 33.8833 28.0533 32.81 29.22C31.7367 30.3867 30.3833 30.97 28.75 30.97C27.5833 30.97 26.3933 30.83 25.18 30.55C24.0133 30.2233 22.73 29.8967 21.33 29.57C19.9767 29.1967 18.4133 28.9867 16.64 28.94C15.38 28.8467 14.3533 28.9167 13.56 29.15C12.7667 29.3833 12.37 29.7567 12.37 30.27C12.37 30.83 12.8367 31.2267 13.77 31.46C14.7033 31.6467 16.1033 31.9033 17.97 32.23L22.94 33.14C25.9733 33.6533 28.3767 34.3067 30.15 35.1C31.97 35.8467 33.2767 36.8967 34.07 38.25C34.8633 39.6033 35.26 41.47 35.26 43.85C35.26 46.3233 34.5367 48.4 33.09 50.08C31.69 51.7133 29.73 52.9267 27.21 53.72C24.69 54.5133 21.7967 54.91 18.53 54.91ZM43.2427 54C41.1894 54 39.5561 53.3933 38.3427 52.18C37.1761 50.92 36.5927 49.38 36.5927 47.56V7.03C36.5927 5.07 37.1761 3.41333 38.3427 2.06C39.5561 0.706664 41.2594 0.0299981 43.4527 0.0299981C45.5994 0.0299981 47.2094 0.706664 48.2827 2.06C49.4027 3.41333 49.9627 5.09333 49.9627 7.1V28.03H51.2227C51.2227 25.37 51.6894 23.27 52.6227 21.73C53.6027 20.19 54.8394 19.0933 56.3327 18.44C57.8727 17.74 59.4361 17.39 61.0227 17.39C63.8227 17.39 65.9461 18.09 67.3927 19.49C68.8861 20.8433 69.8894 22.6633 70.4027 24.95C70.9627 27.2367 71.2427 29.7333 71.2427 32.44V47.56C71.2427 49.4733 70.6127 51.0367 69.3527 52.25C68.1394 53.4167 66.5061 54 64.4527 54C62.3527 54 60.6961 53.4167 59.4827 52.25C58.2694 51.0367 57.6627 49.4733 57.6627 47.56V35.17C57.6627 33.49 57.3361 32.1833 56.6827 31.25C56.0294 30.3167 55.0727 29.85 53.8127 29.85C52.5527 29.85 51.5961 30.3633 50.9427 31.39C50.2894 32.4167 49.9627 33.7233 49.9627 35.31V47.56C49.9627 49.38 49.3561 50.92 48.1427 52.18C46.9761 53.3933 45.3427 54 43.2427 54ZM83.134 54C79.6807 54 76.974 53.0667 75.014 51.2C73.1007 49.3333 72.144 46.72 72.144 43.36C72.144 40 73.264 37.5733 75.504 36.08C77.744 34.54 80.614 33.77 84.114 33.77C86.1673 33.77 88.034 33.91 89.714 34.19C91.394 34.47 92.9107 34.8667 94.264 35.38H94.474V34.33C94.474 33.2567 94.0773 32.4167 93.284 31.81C92.4907 31.1567 91.4873 30.8533 90.274 30.9C89.1073 30.9 88.104 30.97 87.264 31.11C86.4707 31.25 85.4673 31.4833 84.254 31.81C82.014 32.37 80.0773 32.3233 78.444 31.67C76.8107 31.0167 75.6907 29.7333 75.084 27.82C74.524 25.8133 74.6407 24.1333 75.434 22.78C76.274 21.4267 77.534 20.3767 79.214 19.63C80.6607 18.93 82.2707 18.3467 84.044 17.88C85.864 17.4133 87.824 17.18 89.924 17.18C96.0373 17.18 100.517 18.6733 103.364 21.66C106.257 24.6 107.704 29.5467 107.704 36.5V47.35C107.704 49.2633 107.121 50.85 105.954 52.11C104.787 53.37 103.177 54 101.124 54C98.884 54 97.204 53.37 96.084 52.11C95.0107 50.85 94.474 49.31 94.474 47.49V45.88H93.074C93.074 47.0933 92.8407 48.33 92.374 49.59C91.954 50.85 91.044 51.9 89.644 52.74C88.2907 53.58 86.1207 54 83.134 54ZM83.834 38.67C83.834 39.4633 84.114 40.0233 84.674 40.35C85.2807 40.6767 86.564 40.84 88.524 40.84C90.2973 40.84 91.534 40.6767 92.234 40.35C92.934 40.0233 93.284 39.4633 93.284 38.67C93.284 37.9233 92.934 37.41 92.234 37.13C91.534 36.8033 90.2973 36.64 88.524 36.64C86.564 36.64 85.2807 36.8033 84.674 37.13C84.114 37.41 83.834 37.9233 83.834 38.67ZM116.159 54C113.965 54 112.262 53.37 111.049 52.11C109.835 50.85 109.229 49.2633 109.229 47.35V24.39C109.229 22.3833 109.835 20.7267 111.049 19.42C112.262 18.0667 113.965 17.39 116.159 17.39C118.352 17.39 120.032 18.0667 121.199 19.42C122.365 20.7267 122.949 22.3367 122.949 24.25V25.72H124.279C124.465 23.2467 125.399 21.2167 127.079 19.63C128.759 18.0433 130.742 17.25 133.029 17.25C135.315 17.25 137.112 17.95 138.419 19.35C139.772 20.75 140.449 22.6167 140.449 24.95C140.449 27.1433 139.819 28.9633 138.559 30.41C137.299 31.8567 135.689 32.58 133.729 32.58C132.095 32.58 130.719 32.2067 129.599 31.46C128.525 30.6667 127.732 29.7567 127.219 28.73C125.725 28.5433 124.629 28.7067 123.929 29.22C123.275 29.6867 122.949 30.6433 122.949 32.09V47.35C122.949 49.2633 122.365 50.85 121.199 52.11C120.032 53.37 118.352 54 116.159 54ZM138.841 35.8C138.841 32.1133 139.564 28.87 141.011 26.07C142.504 23.27 144.604 21.0767 147.311 19.49C150.064 17.9033 153.331 17.11 157.111 17.11C160.051 17.11 162.688 17.6467 165.021 18.72C167.401 19.7933 169.268 21.24 170.621 23.06C171.974 24.8333 172.651 26.7933 172.651 28.94C172.651 31.18 171.998 32.7667 170.691 33.7C169.384 34.6333 167.448 35.1 164.881 35.1H150.181C150.181 36.3133 150.648 37.3167 151.581 38.11C152.561 38.9033 154.194 39.3 156.481 39.3C157.648 39.3 158.721 39.1833 159.701 38.95C160.728 38.7167 161.754 38.5067 162.781 38.32C163.854 38.0867 165.044 37.97 166.351 37.97C168.218 37.97 169.758 38.6467 170.971 40C172.184 41.3067 172.791 43.1267 172.791 45.46C172.791 48.2133 171.368 50.36 168.521 51.9C165.721 53.44 162.034 54.21 157.461 54.21C154.241 54.21 151.208 53.58 148.361 52.32C145.561 51.06 143.274 49.0767 141.501 46.37C139.728 43.6167 138.841 40.0933 138.841 35.8ZM161.521 32.79C162.221 32.79 162.454 32.4633 162.221 31.81C162.034 31.1567 161.474 30.48 160.541 29.78C159.608 29.08 158.254 28.73 156.481 28.73C154.428 28.73 152.888 29.1733 151.861 30.06C150.881 30.9467 150.391 31.8567 150.391 32.79H161.521ZM181.357 54C178.93 54 177.133 53.2767 175.967 51.83C174.8 50.3833 174.217 48.4467 174.217 46.02V13.4C174.217 9.85333 175.173 7.24 177.087 5.56C179.047 3.88 181.38 3.04 184.087 3.04C186.653 3.04 188.823 3.88 190.597 5.56C192.417 7.24 193.747 9.9 194.587 13.54L200.047 37.27H201.867L207.327 13.54C208.167 9.9 209.497 7.24 211.317 5.56C213.183 3.88 215.4 3.04 217.967 3.04C220.673 3.04 222.983 3.88 224.897 5.56C226.857 7.24 227.837 9.85333 227.837 13.4V46.02C227.837 48.4467 227.23 50.3833 226.017 51.83C224.85 53.2767 223.053 54 220.627 54C218.293 54 216.497 53.2767 215.237 51.83C213.977 50.3833 213.347 48.4467 213.347 46.02V27.19C213.347 26.7233 213.277 26.3033 213.137 25.93C213.043 25.51 212.74 25.3 212.227 25.3C211.807 25.3 211.503 25.51 211.317 25.93C211.13 26.3033 210.99 26.7233 210.897 27.19L208.237 44.83C207.91 46.7433 207.513 48.4 207.047 49.8C206.627 51.1533 205.95 52.2033 205.017 52.95C204.083 53.65 202.73 54 200.957 54C199.23 54 197.877 53.65 196.897 52.95C195.963 52.2033 195.263 51.1533 194.797 49.8C194.377 48.4 194.027 46.7433 193.747 44.83L191.017 27.19C190.97 26.7233 190.853 26.3033 190.667 25.93C190.48 25.51 190.153 25.3 189.687 25.3C189.22 25.3 188.917 25.51 188.777 25.93C188.637 26.3033 188.567 26.7233 188.567 27.19V46.02C188.567 48.4467 187.937 50.3833 186.677 51.83C185.463 53.2767 183.69 54 181.357 54ZM247.302 53.86C245.015 53.86 242.822 53.65 240.722 53.23C238.669 52.81 236.849 52.0167 235.262 50.85C233.722 49.6367 232.485 47.91 231.552 45.67C230.665 43.3833 230.222 40.3967 230.222 36.71C230.222 33.3967 230.665 30.55 231.552 28.17C232.439 25.79 233.489 23.9 234.702 22.5C235.962 21.1 237.105 20.2367 238.132 19.91L237.782 18.58H236.592C234.445 18.58 232.742 17.9033 231.482 16.55C230.269 15.15 229.639 13.26 229.592 10.88C229.545 8.54666 230.152 6.68 231.412 5.28C232.719 3.88 234.445 3.18 236.592 3.18H261.722C266.715 3.18 269.212 5.51333 269.212 10.18C269.212 12.28 268.605 13.96 267.392 15.22C266.179 16.48 264.289 17.11 261.722 17.11H247.232C245.505 17.11 244.642 18.1133 244.642 20.12V25.37C246.975 24.8567 249.402 24.25 251.922 23.55C254.489 22.85 256.915 22.5 259.202 22.5C261.395 22.5 263.029 22.99 264.102 23.97C265.222 24.9033 265.782 26.1867 265.782 27.82C265.782 29.5 265.222 30.83 264.102 31.81C263.029 32.7433 261.395 33.2333 259.202 33.28C256.915 33.3267 254.489 33 251.922 32.3C249.355 31.6 246.905 30.9933 244.572 30.48V39.65C244.572 40.5367 244.805 41.1667 245.272 41.54C245.785 41.8667 246.579 41.7267 247.652 41.12C249.985 39.7667 252.272 38.6933 254.512 37.9C256.752 37.06 258.945 36.64 261.092 36.64C264.125 36.64 266.412 37.4333 267.952 39.02C269.539 40.6067 270.332 42.6833 270.332 45.25C270.332 48.0033 269.492 50.1267 267.812 51.62C266.179 53.1133 263.519 53.86 259.832 53.86H247.302Z" fill="#FCFCD4"/>
</svg>
